<svg width="2500" height="2500" viewBox="0 0 2500 2500" fill="none" xmlns="http://www.w3.org/2000/svg">
<path d="M1898.73 1486.91C2125.84 1486.91 2310.56 1671.63 2310.56 1898.74C2310.56 2125.86 2125.84 2310.57 1898.73 2310.57C1671.61 2310.57 1486.89 2125.86 1486.89 1898.74C1486.89 1671.63 1671.61 1486.91 1898.73 1486.91ZM1898.73 1297.78C1566.8 1297.78 1297.76 1566.82 1297.76 1898.74C1297.76 2230.67 1566.8 2499.71 1898.73 2499.71C2230.65 2499.71 2499.69 2230.67 2499.69 1898.74C2499.69 1566.82 2230.65 1297.78 1898.73 1297.78Z" fill="#BC002D"/>
<path d="M1898.88 189.18C2126.05 189.18 2310.82 373.946 2310.82 601.119C2310.82 828.293 2126.05 1013.06 1898.88 1013.06C1671.71 1013.06 1486.94 828.293 1486.94 601.119C1486.94 373.946 1671.71 189.18 1898.88 189.18ZM1898.88 0C1566.87 0 1297.76 269.108 1297.76 601.119C1297.76 933.13 1566.87 1202.24 1898.88 1202.24C2230.89 1202.24 2500 933.13 2500 601.119C2500 269.108 2230.89 0 1898.88 0Z" fill="#BC002D"/>
<path d="M993.688 191.387C956.089 388.528 860.632 569.747 715.594 714.785C570.556 859.823 389.337 955.28 192.196 992.879V191.387H993.688ZM1203.13 0H0.808838V1202.32C664.83 1202.32 1203.13 664.021 1203.13 0Z" fill="#BC002D"/>
<path d="M0 1297.86V1489.18H992.493C961.921 1649.54 892.976 1799.49 790.228 1927.86H790.464C665.969 2085.22 497.507 2201.69 301.94 2263.15C202.738 2294.28 101.172 2309.8 0.0786308 2309.96V2499.71C663.842 2499.71 1201.93 1961.58 1201.93 1297.78H0.0786308L0 1297.86Z" fill="#BC002D"/>
</svg>
