<svg width="5000" height="1181" viewBox="0 0 5000 1181" fill="none" xmlns="http://www.w3.org/2000/svg">
<path d="M1863.09 185.69C2086.07 185.69 2267.43 367.047 2267.43 590.029C2267.43 813.011 2086.07 994.368 1863.09 994.368C1640.11 994.368 1458.75 813.011 1458.75 590.029C1458.75 367.047 1640.11 185.69 1863.09 185.69ZM1863.09 0C1537.2 0 1273.06 264.144 1273.06 590.029C1273.06 915.914 1537.2 1180.06 1863.09 1180.06C2188.97 1180.06 2453.12 915.914 2453.12 590.029C2453.12 264.144 2188.97 0 1863.09 0Z" fill="#1C1C1C"/>
<path d="M4409.97 185.69C4632.95 185.69 4814.31 367.047 4814.31 590.029C4814.31 813.011 4632.95 994.368 4409.97 994.368C4186.99 994.368 4005.63 813.011 4005.63 590.029C4005.63 367.047 4186.99 185.69 4409.97 185.69ZM4409.97 0C4084.09 0 3819.94 264.144 3819.94 590.029C3819.94 915.914 4084.09 1180.06 4409.97 1180.06C4735.86 1180.06 5000 915.914 5000 590.029C5000 264.144 4735.86 0 4409.97 0Z" fill="#1C1C1C"/>
<path d="M974.561 187.856C937.655 381.36 843.959 559.235 701.597 701.597C559.235 843.959 381.36 937.655 187.856 974.561V187.856H974.561ZM1180.13 0H0V1180.13C651.771 1180.13 1180.13 651.771 1180.13 0Z" fill="#1C1C1C"/>
<path d="M2546.08 0.0773707V187.933H3520.64C3490.62 345.383 3422.92 492.619 3322.03 618.656H3322.26C3200.02 773.165 3034.6 887.519 2842.56 947.868C2745.15 978.43 2645.42 993.672 2546.16 993.826V1180.13C3197.93 1180.13 3726.29 651.771 3726.29 0H2546.16L2546.08 0.0773707Z" fill="#1C1C1C"/>
</svg>
