<svg width="2500" height="2500" viewBox="0 0 2500 2500" fill="none" xmlns="http://www.w3.org/2000/svg">
<path d="M2293.28 0C2407.45 0 2500 92.5513 2500 206.719V2293.28C2500 2407.45 2407.45 2500 2293.28 2500H206.719C92.5513 2500 0 2407.45 0 2293.28V206.719C0 92.5513 92.5513 0 206.719 0H2293.28ZM293.437 1286.72V1433.15H1053.01C1029.62 1555.87 976.852 1670.64 898.217 1768.88H898.397C803.118 1889.31 674.19 1978.44 524.518 2025.48C448.596 2049.3 370.865 2061.18 293.496 2061.3V2206.52C801.49 2206.52 1213.3 1794.69 1213.3 1286.66H293.496L293.437 1286.72ZM1746.62 1286.66C1492.59 1286.66 1286.69 1492.56 1286.69 1746.59C1286.69 2000.62 1492.59 2206.52 1746.62 2206.52C2000.65 2206.52 2206.55 2000.62 2206.55 1746.59C2206.55 1492.56 2000.65 1286.66 1746.62 1286.66ZM1746.62 1431.41C1920.44 1431.41 2061.81 1572.78 2061.81 1746.59C2061.81 1920.41 1920.44 2061.78 1746.62 2061.78C1572.81 2061.78 1431.44 1920.41 1431.44 1746.59C1431.44 1572.78 1572.81 1431.41 1746.62 1431.41ZM294.055 1213.62C802.246 1213.62 1214.22 801.651 1214.22 293.459H294.055V1213.62ZM1746.74 293.459C1492.64 293.459 1286.69 499.414 1286.69 753.51C1286.69 1007.61 1492.64 1213.56 1746.74 1213.56C2000.84 1213.56 2206.79 1007.61 2206.79 753.51C2206.79 499.414 2000.84 293.459 1746.74 293.459ZM1746.74 438.243C1920.6 438.243 2062.01 579.648 2062.01 753.51C2062.01 927.371 1920.6 1068.78 1746.74 1068.78C1572.88 1068.78 1431.47 927.371 1431.47 753.51C1431.47 579.649 1572.88 438.243 1746.74 438.243ZM1053.93 439.932C1025.15 590.808 952.098 729.5 841.097 840.501C730.096 951.502 591.404 1024.56 440.527 1053.33V439.932H1053.93Z" fill="#BC002D"/>
</svg>
