<svg width="2500" height="2500" viewBox="0 0 2500 2500" fill="none" xmlns="http://www.w3.org/2000/svg">
<path d="M2363.64 263.621C2363.64 193.334 2306.67 136.358 2236.38 136.358H263.621C193.334 136.358 136.358 193.334 136.358 263.621V2236.38C136.358 2306.67 193.334 2363.64 263.621 2363.64H2236.38C2306.67 2363.64 2363.64 2306.67 2363.64 2236.38V263.621ZM2500 2236.38C2500 2381.97 2381.97 2500 2236.38 2500H263.621C118.028 2500 0 2381.97 0 2236.38V263.621C0.00084418 118.029 118.029 0.000825091 263.621 0H2236.38C2381.97 0 2500 118.028 2500 263.621V2236.38Z" fill="#1C1C1C"/>
<path d="M1715.51 477.436C1879.89 477.436 2013.58 611.129 2013.58 775.508C2013.58 939.886 1879.89 1073.58 1715.51 1073.58C1551.13 1073.58 1417.44 939.886 1417.44 775.508C1417.44 611.129 1551.13 477.436 1715.51 477.436ZM1715.51 340.549C1475.27 340.549 1280.55 535.271 1280.55 775.508C1280.55 1015.74 1475.27 1210.47 1715.51 1210.47C1955.75 1210.47 2150.47 1015.74 2150.47 775.508C2150.47 535.271 1955.75 340.549 1715.51 340.549Z" fill="#1C1C1C"/>
<path d="M1715.4 1416.47C1879.74 1416.47 2013.39 1550.13 2013.39 1714.47C2013.39 1878.8 1879.74 2012.46 1715.4 2012.46C1551.06 2012.46 1417.4 1878.8 1417.4 1714.47C1417.4 1550.13 1551.06 1416.47 1715.4 1416.47ZM1715.4 1279.62C1475.22 1279.62 1280.55 1474.29 1280.55 1714.47C1280.55 1954.64 1475.22 2149.31 1715.4 2149.31C1955.57 2149.31 2150.25 1954.64 2150.25 1714.47C2150.25 1474.29 1955.57 1279.62 1715.4 1279.62Z" fill="#1C1C1C"/>
<path d="M1060.51 479.033C1033.31 621.681 964.237 752.807 859.29 857.754C754.343 962.701 623.217 1031.77 480.569 1058.98V479.033H1060.51ZM1212.06 340.549H342.085V1210.52C822.559 1210.52 1212.06 821.023 1212.06 340.549Z" fill="#1C1C1C"/>
<path d="M341.488 1279.68V1418.12H1059.64C1037.52 1534.15 987.629 1642.65 913.283 1735.54H913.454C823.371 1849.4 701.475 1933.67 559.966 1978.15C488.185 2000.67 414.694 2011.9 341.545 2012.02V2149.31C821.832 2149.31 1211.18 1759.94 1211.18 1279.62H341.545L341.488 1279.68Z" fill="#1C1C1C"/>
</svg>
