<svg xmlns="http://www.w3.org/2000/svg" xmlns:xlink="http://www.w3.org/1999/xlink" viewBox="0 0 219.35 38.54" width="228" height="40" class="v-pt-logo v-header__logo">
	<defs>
		<style>
			.v-pt-logo__fill-green{fill:#83ba26;}
			.v-pt-logo__fill-dark-grey{fill:#231f20;}
			.v-pt-logo__fill-black{fill:#211e1f;}
			.v-pt-logo__fill-gradient-1{fill:url(#v-pt-logo__gradient-1);}
			.v-pt-logo__fill-gradient-2{fill:url(#v-pt-logo__gradient-2);}
			.v-pt-logo__fill-gradient-3{fill:url(#v-pt-logo__gradient-3);}
			.v-pt-logo__fill-gradient-4{fill:url(#v-pt-logo__gradient-4);}
			.v-pt-logo__fill-gradient-5{fill:url(#v-pt-logo__gradient-5);}
		</style>
		<linearGradient id="v-pt-logo__gradient-1" x1="15.15" y1="38.25" x2="14.13" y2=".41" gradientTransform="matrix(1, 0, 0, 1, 0, 0)" gradientUnits="userSpaceOnUse">
			<stop offset="0" stop-color="#6e952b"></stop>
			<stop offset=".09" stop-color="#729d29"></stop>
			<stop offset=".46" stop-color="#83ba25"></stop>
			<stop offset=".77" stop-color="#8ecc22"></stop>
			<stop offset="1" stop-color="#92d322"></stop>
		</linearGradient>
		<linearGradient id="v-pt-logo__gradient-2" x1="12.04" y1="33.94" x2="12.04" y2="2.71" gradientTransform="matrix(1, 0, 0, 1, 0, 0)" gradientUnits="userSpaceOnUse">
			<stop offset="0" stop-color="#e0e0e0"></stop>
			<stop offset=".59" stop-color="#f5f5f5"></stop>
			<stop offset="1" stop-color="#fff"></stop>
		</linearGradient>
		<linearGradient id="v-pt-logo__gradient-3" x1="11.1" y1="38.35" x2="10.08" y2=".52" xlink:href="#v-pt-logo__gradient-1"></linearGradient>
		<linearGradient id="v-pt-logo__gradient-4" x1="9.25" y1="34.05" x2="9.62" y2="3.19" xlink:href="#v-pt-logo__gradient-2"></linearGradient>
		<linearGradient id="v-pt-logo__gradient-5" x1="9.31" y1="38.4" x2="8.29" y2=".57" xlink:href="#v-pt-logo__gradient-1"></linearGradient>
	</defs>
	<g class="v-pt-logo__mark">
		<path class="v-pt-logo__fill-green" d="M33.62,34.17l-.22-.46v-2.73l.22-.46h1.04v3.65h-1.04Zm-.39-3.19v2.73h-.91l-1.32-.6h-.15c0-.62,0-.57-.01-.61-.04-.08-.16-.07-.19,.02,0,.02,0,0,0,.57l-.41-.02v-.52c0-.11-.16-.14-.2-.03,0,.02,0,0,0,.54l-.41-.02v-.48c0-.13-.2-.13-.2,0v.47l-.46-.03v-1.28h.15c0,.48,0,.46,.02,.5,.06,.08,.19,.04,.19-.06v-.46l.41-.02c0,.53,0,.49,0,.52,.04,.11,.2,.08,.2-.03v-.5l.41-.02c0,.57,0,.55,.02,.58,.06,.08,.19,.04,.19-.06v-.54l.46-.03,1.32-.6h.91Zm-7.78-3.2h-.78v1.21c0,2.07,1.68,3.75,3.75,3.75h.53v-.78h-.53c-1.64,0-2.97-1.33-2.97-2.97v-1.21Z"></path>
		<g class="v-pt-logo__plug">
			<path class="v-pt-logo__fill-gradient-1" d="M22.69,.75c6.75,2.93,8.62,13.61,4.18,23.83-4.45,10.23-13.52,16.14-20.27,13.21C-.16,34.86-2.03,24.19,2.41,13.96,6.86,3.73,15.94-2.18,22.69,.75Z"></path>
			<path class="v-pt-logo__fill-gradient-2" d="M21.34,21.99c-3.48,8.43-10.47,13.55-15.61,11.42C.59,31.29-.75,22.73,2.73,14.3,6.22,5.87,13.21,.75,18.34,2.88c5.14,2.12,6.48,10.68,3,19.11Z"></path>
			<path class="v-pt-logo__fill-gradient-3" d="M17.58,20.43c-2.68,6.49-8,10.45-11.89,8.84-3.89-1.6-4.86-8.17-2.18-14.65C6.19,8.13,11.51,4.17,15.39,5.78c3.89,1.6,4.86,8.17,2.18,14.65Z"></path>
			<path class="v-pt-logo__fill-gradient-4" d="M14.41,19.12c-1.87,4.53-5.61,7.29-8.35,6.16-2.74-1.13-3.44-5.72-1.57-10.26,1.87-4.53,5.61-7.29,8.35-6.16,2.74,1.13,3.44,5.72,1.57,10.26Z"></path>
			<path class="v-pt-logo__fill-gradient-5" d="M11.15,17.78c-1.15,2.78-3.17,4.59-4.51,4.04-1.34-.55-1.5-3.26-.35-6.04,1.15-2.78,3.17-4.59,4.51-4.04,1.34,.55,1.5,3.26,.35,6.04Z"></path>
		</g>
	</g>
	<g class="v-pt-logo__text" style="opacity: 1;">
		<path class="v-pt-logo__fill-dark-grey" d="M53.24,20.33c0-4.8,3.77-8.51,8.51-8.51s8.54,3.71,8.54,8.51-3.8,8.51-8.54,8.51-8.51-3.71-8.51-8.51Zm12.89,0c0-2.61-1.9-4.45-4.38-4.45s-4.35,1.84-4.35,4.45,1.9,4.45,4.35,4.45,4.38-1.84,4.38-4.45Z"></path>
		<path class="v-pt-logo__fill-dark-grey" d="M94.07,12.27l-5.12,16.12h-3.96l-2.97-9.77-2.97,9.77h-3.96l-5.12-16.12h4.42l2.74,9.9,2.93-9.9h3.93l2.93,9.93,2.74-9.93h4.42Z"></path>
		<path class="v-pt-logo__fill-dark-grey" d="M103.02,25.07c1.61,0,2.9-.68,3.61-1.61l3.35,1.93c-1.51,2.19-3.93,3.45-7.03,3.45-5.41,0-8.83-3.71-8.83-8.51s3.45-8.51,8.51-8.51c4.77,0,8.15,3.77,8.15,8.51,0,.61-.06,1.16-.16,1.71h-12.15c.58,2.13,2.35,3.03,4.54,3.03Zm3.61-6.25c-.52-2.32-2.26-3.26-4-3.26-2.22,0-3.74,1.19-4.22,3.26h8.22Z"></path>
		<path class="v-pt-logo__fill-dark-grey" d="M122.04,11.95v4.64c-2.16-.26-4.9,.71-4.9,4.09v7.7h-4.16V12.27h4.16v2.77c.84-2.19,2.87-3.09,4.9-3.09Z"></path>
		<path class="v-pt-logo__fill-green" d="M203.17,9.02l4.16-1.26v4.51h4.18v4h-4.18v6.7c0,1.63,1.1,1.76,3.19,1.67,.15,0,.84-.09,.99-.1v3.78c-.13,.01-.8,.1-.92,.11-5.54,.53-7.42-1.2-7.42-5.45V9.02Zm-77.9,0l4.16-1.26v4.51h4.18v4h-4.18v6.7c0,1.63,1.1,1.76,3.19,1.67,.15,0,.84-.09,.99-.1v3.78c-.13,.01-.8,.1-.92,.11-5.54,.53-7.42-1.2-7.42-5.45V9.02Zm26.66,3.26V28.39h-4.16v-1.9c-1.16,1.45-2.9,2.35-5.25,2.35-4.29,0-7.83-3.71-7.83-8.51s3.55-8.51,7.83-8.51c2.35,0,4.09,.9,5.25,2.35v-1.9h4.16Zm-4.16,8.06c0-2.71-1.9-4.54-4.48-4.54s-4.45,1.84-4.45,4.54,1.9,4.54,4.45,4.54,4.48-1.84,4.48-4.54Zm16.99-8.38v4.64c-2.16-.26-4.9,.71-4.9,4.09v7.7h-4.16V12.27h4.16v2.77c.84-2.19,2.87-3.09,4.9-3.09Zm18.21,.32v15.34c0,5.29-4.16,7.67-8.41,7.67-3.45,0-6.22-1.32-7.64-3.93l3.55-2.03c.68,1.26,1.74,2.26,4.22,2.26,2.61,0,4.22-1.42,4.22-3.96v-1.74c-1.13,1.51-2.87,2.45-5.16,2.45-4.58,0-8.03-3.71-8.03-8.25s3.45-8.25,8.03-8.25c2.29,0,4.03,.93,5.16,2.45v-2h4.06Zm-4.06,7.8c0-2.55-1.9-4.38-4.51-4.38s-4.51,1.84-4.51,4.38,1.9,4.42,4.51,4.42,4.51-1.84,4.51-4.42Zm14.82,5c1.61,0,2.9-.68,3.61-1.61l3.35,1.93c-1.52,2.19-3.93,3.45-7.03,3.45-5.41,0-8.83-3.71-8.83-8.51s3.45-8.51,8.51-8.51c4.77,0,8.15,3.77,8.15,8.51,0,.61-.06,1.16-.16,1.71h-12.15c.58,2.13,2.35,3.03,4.54,3.03Zm3.61-6.25c-.52-2.32-2.26-3.26-4-3.26-2.22,0-3.74,1.19-4.22,3.26h8.22Z"></path>
		<path class="v-pt-logo__fill-dark-grey" d="M52.34,20.33c0,4.82-3.55,8.53-7.89,8.53-2.36,0-4.07-.87-5.24-2.36v8.37h-4.17V12.26h4.17v1.91c1.16-1.49,2.88-2.36,5.24-2.36,4.33,0,7.89,3.72,7.89,8.53Zm-4.17,0c0-2.71-1.91-4.56-4.49-4.56s-4.46,1.84-4.46,4.56,1.91,4.56,4.46,4.56,4.49-1.84,4.49-4.56Z"></path>
		<path class="v-pt-logo__fill-black" d="M216.71,23.47c1.45,0,2.64,1.19,2.64,2.64s-1.19,2.64-2.64,2.64-2.65-1.19-2.65-2.64,1.18-2.64,2.65-2.64Zm0,4.82c1.2,0,2.17-.97,2.17-2.17s-.98-2.17-2.17-2.17-2.18,.97-2.18,2.17,.98,2.17,2.18,2.17Zm-1.02-3.7h1.16c.73,0,1.06,.33,1.06,.91,0,.52-.31,.78-.72,.83l.79,1.28h-.58l-.76-1.24h-.41v1.24h-.55v-3.02Zm.55,1.32h.41c.34,0,.72-.02,.72-.42s-.38-.43-.72-.42h-.41v.84Z"></path>
	</g>
</svg>
