<svg viewBox="0 0 341.83 389.7" xmlns="http://www.w3.org/2000/svg" id="Layer_1"><defs><style>.cls-1{fill:#010101;}.cls-1,.cls-2{stroke-width:0px;}.cls-2{fill:#231f20;}</style></defs><path d="M28.83,358.15h-10.55c-7.03,0-9.88,3.71-9.88,8.61,0,3.35,1.3,6.32,4.55,7.76l-4.8,8.33h6.6l4.13-7.48h3.28v7.48h6.67v-24.71ZM15.32,366.77c0-1.59.88-2.82,3.18-2.82h3.67v5.65h-3.67c-2.29,0-3.18-1.23-3.18-2.82Z" class="cls-2"></path><path d="M43.53,358.15h17.54v5.79h-10.87v3.92h9.81v5.19h-9.81v4.02h11.22v5.79h-17.9v-24.71Z" class="cls-2"></path><path d="M76.12,358.15h7.03l5.79,17.97h.35l5.79-17.97h7.03l-8.65,24.71h-8.68l-8.65-24.71Z" class="cls-2"></path><path d="M116.8,358.15h17.54v5.79h-10.87v3.92h9.81v5.19h-9.81v4.02h11.22v5.79h-17.9v-24.71Z" class="cls-2"></path><path d="M170.08,358.15h-10.55c-7.03,0-9.88,3.71-9.88,8.61,0,3.35,1.3,6.32,4.55,7.76l-4.8,8.33h6.6l4.13-7.48h3.29v7.48h6.67v-24.71ZM156.56,366.77c0-1.59.88-2.82,3.18-2.82h3.67v5.65h-3.67c-2.29,0-3.18-1.23-3.18-2.82Z" class="cls-2"></path><path d="M184.77,374.25h6.95c.1,1.87,1.06,3.46,3.88,3.46,2.05,0,3.46-.78,3.46-2.33,0-1.09-.71-1.66-2.61-2.05l-3.57-.71c-3.67-.71-7.45-2.29-7.45-7.2,0-5.19,4.31-7.59,10.1-7.59s10.02,2.54,10.02,8.19h-6.95c.14-2.12-1.59-2.68-3.25-2.68-2.22,0-2.89,1.13-2.89,2.08,0,.64.35,1.52,1.97,1.87l3.18.63c6.6,1.31,8.54,3.81,8.54,7.41,0,5.75-4.98,7.87-10.59,7.87-6.5,0-10.8-2.93-10.8-8.96Z" class="cls-2"></path><path d="M220.86,358.15h17.54v5.79h-10.87v3.92h9.81v5.19h-9.81v4.02h11.23v5.79h-17.9v-24.71Z" class="cls-2"></path><path d="M253.45,358.15h10.17c7.62,0,11.68,4.41,11.68,12.35s-4.06,12.35-11.68,12.35h-10.17v-24.71ZM268.45,370.51c0-4.76-1.2-6.56-5.54-6.56h-2.79v13.13h2.79c4.34,0,5.54-1.84,5.54-6.57Z" class="cls-2"></path><path d="M335.91,175.08c-.84-4.6-4.84-7.94-9.52-7.94h-23.79c-5.34,0-9.69,4.34-9.69,9.69s4.35,9.69,9.69,9.69h14.16v14.39c0,5.34,4.35,9.69,9.69,9.69s9.69-4.35,9.69-9.69v-23.79c0-.7-.08-1.4-.23-2.03Z" class="cls-2"></path><path d="M326.45,224.14c-4.19,0-8.12-1.13-11.52-3.09-2.07-.88-3.71-2.21-5.04-3.88-4.12-4.2-6.68-9.94-6.68-16.27v-.84h-.61c-12.81,0-23.24-10.42-23.24-23.24s10.43-23.24,23.24-23.24h23.79c3.26,0,6.38.69,9.22,1.92.22-.22.39-.39.39-.39,1.53-14.11-17.76-20.85-26.68-20.85h-52.59c-9.24,0-16.72,7.49-16.72,16.72,0,0-.19,28.52-.19,31.49h-114c-27.43,0-43.83-40.42-41.77-62.77,3.19-34.75,31.25-51.76,64.12-51.76,0,0,129.26-.34,129.65-.34,16.88,0,30.56-13.68,30.56-30.56s-13.68-30.56-30.56-30.56h-132.45C57.32,6.49,5.87,76.36,21.68,162.03c6.03,32.66,26.95,53.2,53.66,70.92L5.69,338.91h75.42l61.46-92.18h64.25v92.18h69.84v-99.88c2.84,1.14,5.69,2.04,7.83,2.44,12.27,2.28,32.44,1.92,45.03-9.66,2.12-1.95,3.84-4.33,5.11-6.93.39-.81.68-1.69.99-2.62-2.81,1.21-5.9,1.88-9.15,1.88Z" class="cls-1"></path></svg>